<svg width="15" height="24" viewBox="0 0 15 24" fill="none" xmlns="http://www.w3.org/2000/svg">
<path d="M13.0612 1.52588e-05C13.2273 -0.000743866 13.3919 0.0244751 13.5457 0.0742321C13.6995 0.123987 13.8393 0.197302 13.9572 0.289967C14.0755 0.382914 14.1694 0.493494 14.2335 0.615334C14.2976 0.737171 14.3306 0.867857 14.3306 0.999846C14.3306 1.13183 14.2976 1.26252 14.2335 1.38436C14.1694 1.5062 14.0755 1.61678 13.9572 1.70972L3.64606 9.87833C2.93702 10.4407 2.53876 11.2031 2.53876 11.998C2.53876 12.7928 2.93702 13.5552 3.64606 14.1176L13.9572 22.2862C14.1949 22.4745 14.3284 22.7298 14.3284 22.9961C14.3284 23.2623 14.1949 23.5177 13.9572 23.706C13.7196 23.8942 13.3973 24 13.0612 24C12.7251 24 12.4027 23.8942 12.1651 23.706L1.85391 15.5374C1.26624 15.073 0.799998 14.5213 0.481874 13.914C0.163748 13.3066 -5.72205e-06 12.6555 -5.72205e-06 11.998C-5.72205e-06 11.3404 0.163748 10.6893 0.481874 10.082C0.799998 9.47461 1.26624 8.92295 1.85391 8.45857L12.1651 0.289967C12.283 0.197302 12.4229 0.123987 12.5766 0.0742321C12.7304 0.0244751 12.8951 -0.000743866 13.0612 1.52588e-05Z" fill="#282828"/>
</svg>
