<svg width="23" height="12" viewBox="0 0 23 12" fill="none" xmlns="http://www.w3.org/2000/svg">
<path id="Vector" d="M0.139794 1.54816C0.139096 1.4275 0.162224 1.30788 0.207851 1.19617C0.253479 1.08446 0.32071 0.982858 0.405687 0.897185C0.490922 0.811248 0.592328 0.743039 0.704057 0.69649C0.815786 0.649942 0.935626 0.625977 1.05666 0.625977C1.1777 0.625977 1.29754 0.649942 1.40927 0.69649C1.521 0.743039 1.62241 0.811248 1.70764 0.897185L9.19847 8.38802C9.71422 8.90312 10.4133 9.19244 11.1422 9.19244C11.8712 9.19244 12.5703 8.90312 13.086 8.38802L20.5768 0.897185C20.7495 0.724535 20.9837 0.627541 21.2278 0.627541C21.472 0.627541 21.7061 0.724535 21.8788 0.897185C22.0514 1.06984 22.1484 1.304 22.1484 1.54816C22.1484 1.79233 22.0514 2.02649 21.8788 2.19914L14.388 9.68997C13.9621 10.1169 13.4562 10.4556 12.8993 10.6867C12.3423 10.9178 11.7452 11.0368 11.1422 11.0368C10.5392 11.0368 9.94216 10.9178 9.38521 10.6867C8.82825 10.4556 8.32237 10.1169 7.89652 9.68997L0.405687 2.19914C0.32071 2.11347 0.253479 2.01186 0.207851 1.90016C0.162224 1.78845 0.139096 1.66883 0.139794 1.54816Z" fill="#282828" fill-opacity="0.6"/>
</svg>
