<svg width="101" height="101" viewBox="0 0 101 101" fill="none" xmlns="http://www.w3.org/2000/svg">
<g clip-path="url(#clip0_81_8280)">
<rect width="100.069" height="100.069" transform="translate(0.0703125 0.0947266)" fill="white"/>
<circle cx="50.105" cy="50.1295" r="50.0347" fill="#54BAAC" fill-opacity="0.1"/>
<path d="M40.3508 13.5043C40.3508 13.5043 28.2724 16.1161 29.153 31.9771C30.0336 47.8381 27.2017 52.3112 27.2017 52.3112L30.3038 51.4506L40.3408 58.3254L67.3996 52.9116L71.6425 54.1725L72.9534 51.2104C72.9534 51.2104 74.4445 52.8116 75.9255 52.9016C75.9255 52.9016 74.5445 45.7767 74.8047 42.5945C75.3551 35.9298 72.1529 26.2331 72.1529 26.2331L40.3308 13.5043H40.3508Z" fill="#441D39"/>
<path d="M89.9255 87.9562C83.1007 85.6646 67.8802 77.9992 62.7066 75.3574C62.3063 75.1573 61.9761 74.9771 61.7059 74.8471C61.2256 74.5969 60.9454 74.4568 60.9454 74.4568H40.3611C40.3611 74.4568 40.0909 74.5969 39.6006 74.8471C39.3304 74.9872 38.9901 75.1573 38.5999 75.3574C37.8393 75.7477 36.8687 76.238 35.7379 76.8084C29.1433 80.1307 17.205 86.0048 11.381 87.9562C3.09521 90.7481 3.09521 104.898 3.09521 104.898H98.2112C98.2112 104.898 98.2112 90.7481 89.9255 87.9562V87.9562Z" fill="#FDEBD9"/>
<path d="M59.654 64.6589H41.5214L40.3506 74.4457C40.3506 76.3671 44.9638 77.9281 50.6477 77.9281C56.3317 77.9281 60.9449 76.3671 60.9449 74.4457L59.664 64.6589H59.654Z" fill="#C1735C"/>
<path d="M33.6057 30.7152C33.6057 30.7152 34.2662 25.3315 38.8293 24.3308C38.8293 24.3308 70.9216 24.3308 64.4871 24.3308C64.4871 24.3308 68.66 24.3308 69.5306 30.335C69.6607 31.2356 70.9916 40.472 70.9116 44.1045C70.8616 46.4361 71.7722 45.2053 71.7722 45.2053C71.7722 45.2053 72.7529 41.4827 72.913 36.5993C73.2132 27.2929 72.0023 11.2917 52.3787 11.2917C32.7551 11.2917 30.9438 23.0699 30.9438 38.2605L31.6643 45.7357C31.6944 46.0359 31.9445 46.256 32.2447 46.256C32.8151 46.256 33.5957 30.7152 33.5957 30.7152H33.6057Z" fill="#C1735C"/>
<path d="M68.8502 28.7728C69.2312 28.7728 69.5402 28.4639 69.5402 28.0828C69.5402 27.7017 69.2312 27.3928 68.8502 27.3928C68.4691 27.3928 68.1602 27.7017 68.1602 28.0828C68.1602 28.4639 68.4691 28.7728 68.8502 28.7728Z" fill="#FF9988"/>
<path d="M40.7407 71.2033C40.7407 71.2033 54.8005 72.4942 59.7539 66.3299V59.245L41.9315 60.9562L40.7407 71.2033V71.2033Z" fill="#A5503C"/>
<path fill-rule="evenodd" clip-rule="evenodd" d="M52.1268 67.5013C61.6428 67.5013 69.6463 59.2347 71.9701 48.0206C72.4028 47.9032 72.6002 47.8069 72.6002 47.8069C74.7017 46.6878 75.8325 44.1 75.5123 40.7328C75.2913 38.409 73.5357 37.8935 72.4688 37.7972C71.1266 24.9861 62.5307 15.105 52.1268 15.105C41.5083 15.105 32.7731 25.3979 31.711 38.5937C31.207 38.5847 28.21 38.6615 28.1 41.7635C27.9799 45.1506 29.2708 47.6585 31.4323 48.6477C31.4323 48.6477 31.757 48.7816 32.4777 48.8956C35.0276 59.6621 42.86 67.5013 52.1268 67.5013Z" fill="#C1735C"/>
<path d="M61.1747 43.3637C61.8434 43.3637 62.3856 42.4228 62.3856 41.2622C62.3856 40.1016 61.8434 39.1608 61.1747 39.1608C60.506 39.1608 59.9639 40.1016 59.9639 41.2622C59.9639 42.4228 60.506 43.3637 61.1747 43.3637Z" fill="#441D39"/>
<path d="M43.0126 42.9336C43.6813 42.9336 44.2234 41.9928 44.2234 40.8322C44.2234 39.6716 43.6813 38.7307 43.0126 38.7307C42.3439 38.7307 41.8018 39.6716 41.8018 40.8322C41.8018 41.9928 42.3439 42.9336 43.0126 42.9336Z" fill="#441D39"/>
<path d="M52.8995 50.7091H50.9882C50.1376 50.7091 49.3871 50.3788 48.9868 49.8385C48.6966 49.4482 48.6165 48.9879 48.7566 48.5376C49.1869 47.1366 49.7774 43.3339 49.7874 43.2939C49.8274 43.0237 50.0876 42.8436 50.3578 42.8736C50.6279 42.9137 50.8181 43.1738 50.778 43.444C50.758 43.6041 50.1676 47.3667 49.7173 48.8278C49.6773 48.9679 49.6973 49.1079 49.7974 49.248C50.0075 49.5382 50.4778 49.7184 50.9982 49.7184H52.9095C53.1897 49.7184 53.4099 49.9385 53.4099 50.2187C53.4099 50.4989 53.1897 50.7191 52.9095 50.7191L52.8995 50.7091Z" fill="#A5503C"/>
<path d="M62.2454 46.6565C64.1742 46.6565 65.7378 46.2981 65.7378 45.856C65.7378 45.4138 64.1742 45.0554 62.2454 45.0554C60.3165 45.0554 58.7529 45.4138 58.7529 45.856C58.7529 46.2981 60.3165 46.6565 62.2454 46.6565Z" fill="#AF5D4E"/>
<path d="M41.8621 46.6565C43.7909 46.6565 45.3545 46.2981 45.3545 45.856C45.3545 45.4138 43.7909 45.0554 41.8621 45.0554C39.9332 45.0554 38.3696 45.4138 38.3696 45.856C38.3696 46.2981 39.9332 46.6565 41.8621 46.6565Z" fill="#AF5D4E"/>
<path d="M65.4784 36.1499C62.0961 35.3793 59.5843 36.1499 58.0533 36.4501C57.4028 36.5802 57.2027 35.7696 57.2027 35.7696C57.0426 35.2292 57.7531 34.7989 58.2734 34.6788C60.0046 34.2485 62.2262 33.9483 65.6085 34.899C66.259 35.0791 66.329 35.6195 66.329 35.6195C66.289 36.2199 65.9187 36.2599 65.4784 36.1499V36.1499Z" fill="#441D39"/>
<path d="M38.4995 36.0087C41.9119 35.3682 44.3936 36.2488 45.9147 36.5991C46.5651 36.7492 46.7853 35.9586 46.7853 35.9586C46.9654 35.4283 46.2749 34.9679 45.7646 34.8178C44.0534 34.3275 41.8418 33.9372 38.4195 34.7478C37.759 34.9079 37.6689 35.4383 37.6689 35.4383C37.679 36.0387 38.0492 36.0887 38.4995 36.0087V36.0087Z" fill="#441D39"/>
<path d="M51.3786 58.3144C49.007 58.3144 47.1357 57.814 47.0056 57.784C46.7354 57.714 46.5853 57.4338 46.6553 57.1736C46.7254 56.9034 47.0056 56.7533 47.2658 56.8233C47.3158 56.8334 51.919 58.0542 55.6316 56.6032C55.8917 56.5031 56.1819 56.6332 56.282 56.8834C56.3821 57.1436 56.252 57.4338 56.0018 57.5338C54.4707 58.1343 52.8296 58.3244 51.3786 58.3244V58.3144Z" fill="#A5503C"/>
<path d="M66.2488 12.9942C52.5192 2.13667 40.3508 13.5046 40.3508 13.5046C28.3124 15.7061 30.0236 33.4784 30.3138 35.3797C30.604 37.2711 30.9743 38.582 30.9743 38.582C31.2345 38.592 31.4746 38.582 31.7048 38.5319L32.7255 45.857C32.7955 46.1172 33.1858 46.1372 33.2759 45.857C33.3659 45.7569 33.6461 41.474 33.9163 37.0009C36.1979 33.6285 36.0978 25.733 40.3508 22.2006C42.4322 20.4694 45.3543 21.8303 45.3543 21.8303C45.3543 21.8303 47.5358 17.9777 52.7294 20.2192C57.4026 22.2306 63.1466 34.9094 69.481 37.9215C69.7312 42.0444 69.9813 45.767 70.0614 45.867C70.1515 46.1472 70.5417 46.1272 70.6118 45.867L71.6325 38.5519L74.5345 37.0409C74.5345 37.0409 75.8454 18.9884 66.2287 13.0042L66.2488 12.9942Z" fill="#441D39"/>
<path d="M89.925 87.9565C86.3225 86.7457 80.3784 84.0338 74.8045 81.3619L59.2537 86.8758V101.756H58.253V87.226L55.0308 88.3668V104.888H98.2107C98.2107 104.888 98.2107 90.7384 89.925 87.9465V87.9565Z" fill="#4598C4"/>
<path d="M67.3593 75.5476C62.4359 73.8565 55.0308 88.3665 55.0308 88.3665L58.253 87.2258V101.756H59.2537V86.8755L74.8045 81.3617L74.8645 81.3417C74.8645 81.3417 72.2927 77.2388 67.3693 75.5476H67.3593Z" fill="#2B7FA5"/>
<path d="M43.3126 87.2946L41.001 101.354L40.0103 101.194L42.352 86.9544L26.521 81.3405C20.9371 84.0223 14.973 86.7442 11.3605 87.955C3.07471 90.747 3.07471 104.897 3.07471 104.897H46.1346L46.3547 88.3753L43.3126 87.2946V87.2946Z" fill="#4598C4"/>
<path d="M34.0264 75.5474C29.113 77.2286 26.5413 81.3214 26.5312 81.3414L42.3622 86.9553L40.0206 101.195L41.0113 101.355L43.3229 87.2956L46.365 88.3763C46.365 88.3763 38.9499 73.8662 34.0365 75.5574L34.0264 75.5474Z" fill="#2B7FA5"/>
</g>
<defs>
<clipPath id="clip0_81_8280">
<rect width="100.069" height="100.069" fill="white" transform="translate(0.0703125 0.0947266)"/>
</clipPath>
</defs>
</svg>
