<svg width="60" height="60" viewBox="0 0 60 60" fill="none" xmlns="http://www.w3.org/2000/svg">
<g id="Group 701">
<rect id="Rectangle 281" x="0.677246" y="0.682129" width="58.3863" height="58.3863" rx="10.2176" fill="#FBD1D1"/>
<g id="Group 639">
<g id="Group 637">
<path id="Rectangle 232" d="M15.8577 28.9999H43.8831V37.4542C43.8831 38.8717 43.8752 39.4346 43.7257 39.8712C43.4335 40.7247 42.763 41.3952 41.9094 41.6875C41.4729 41.8369 40.9099 41.8449 39.4924 41.8449H20.2483C18.8309 41.8449 18.2679 41.8369 17.8314 41.6875C16.9778 41.3952 16.3073 40.7247 16.0151 39.8712C15.8656 39.4346 15.8577 38.8717 15.8577 37.4542V28.9999Z" stroke="#282828" stroke-width="1.16773"/>
<rect id="Rectangle 233" x="21.6969" y="34.8384" width="4.67091" height="1.45966" rx="0.729829" fill="#282828"/>
<rect id="Rectangle 234" x="33.3738" y="34.8384" width="4.67091" height="1.45966" rx="0.729829" fill="#282828"/>
</g>
<path id="Vector" d="M28.3879 26.3575C28.5336 26.5033 28.7067 26.619 28.8971 26.6979C29.0876 26.7769 29.2918 26.8175 29.4979 26.8175C29.7041 26.8175 29.9083 26.7769 30.0987 26.6979C30.2892 26.619 30.4622 26.5033 30.608 26.3575L32.2877 24.6778C32.3777 24.5782 32.4261 24.4478 32.4226 24.3135C32.4192 24.1793 32.3642 24.0515 32.2692 23.9567C32.1741 23.8618 32.0462 23.8072 31.912 23.804C31.7777 23.8008 31.6474 23.8494 31.548 23.9397L30.0174 25.4708L30.021 17.4008C30.021 17.2621 29.9659 17.129 29.8678 17.0309C29.7697 16.9328 29.6367 16.8777 29.4979 16.8777V16.8777C29.3592 16.8777 29.2261 16.9328 29.128 17.0309C29.0299 17.129 28.9748 17.2621 28.9748 17.4008L28.9701 25.4609L27.4479 23.9397C27.3497 23.8416 27.2166 23.7865 27.0778 23.7866C26.9391 23.7866 26.806 23.8418 26.7079 23.9399C26.6098 24.0381 26.5548 24.1712 26.5548 24.31C26.5549 24.4487 26.61 24.5818 26.7082 24.6799L28.3879 26.3575Z" fill="#282828"/>
</g>
</g>
</svg>
