<svg width="20" height="21" viewBox="0 0 20 21" fill="none" xmlns="http://www.w3.org/2000/svg">
<g clip-path="url(#clip0_81_8295)">
<path d="M5.83333 0.346924H3.33333C2.44928 0.346924 1.60143 0.698113 0.976311 1.32323C0.35119 1.94836 0 2.7962 0 3.68026L0 6.18026C0 7.06431 0.35119 7.91216 0.976311 8.53728C1.60143 9.1624 2.44928 9.51359 3.33333 9.51359H5.83333C6.71739 9.51359 7.56524 9.1624 8.19036 8.53728C8.81548 7.91216 9.16667 7.06431 9.16667 6.18026V3.68026C9.16667 2.7962 8.81548 1.94836 8.19036 1.32323C7.56524 0.698113 6.71739 0.346924 5.83333 0.346924V0.346924ZM7.5 6.18026C7.5 6.62228 7.32441 7.04621 7.01184 7.35877C6.69928 7.67133 6.27536 7.84692 5.83333 7.84692H3.33333C2.89131 7.84692 2.46738 7.67133 2.15482 7.35877C1.84226 7.04621 1.66667 6.62228 1.66667 6.18026V3.68026C1.66667 3.23823 1.84226 2.81431 2.15482 2.50175C2.46738 2.18919 2.89131 2.01359 3.33333 2.01359H5.83333C6.27536 2.01359 6.69928 2.18919 7.01184 2.50175C7.32441 2.81431 7.5 3.23823 7.5 3.68026V6.18026Z" fill="#796FAB"/>
<path d="M16.6668 0.346924H14.1668C13.2828 0.346924 12.4349 0.698113 11.8098 1.32323C11.1847 1.94836 10.8335 2.7962 10.8335 3.68026V6.18026C10.8335 7.06431 11.1847 7.91216 11.8098 8.53728C12.4349 9.1624 13.2828 9.51359 14.1668 9.51359H16.6668C17.5509 9.51359 18.3987 9.1624 19.0239 8.53728C19.649 7.91216 20.0002 7.06431 20.0002 6.18026V3.68026C20.0002 2.7962 19.649 1.94836 19.0239 1.32323C18.3987 0.698113 17.5509 0.346924 16.6668 0.346924V0.346924ZM18.3335 6.18026C18.3335 6.62228 18.1579 7.04621 17.8453 7.35877C17.5328 7.67133 17.1089 7.84692 16.6668 7.84692H14.1668C13.7248 7.84692 13.3009 7.67133 12.9883 7.35877C12.6758 7.04621 12.5002 6.62228 12.5002 6.18026V3.68026C12.5002 3.23823 12.6758 2.81431 12.9883 2.50175C13.3009 2.18919 13.7248 2.01359 14.1668 2.01359H16.6668C17.1089 2.01359 17.5328 2.18919 17.8453 2.50175C18.1579 2.81431 18.3335 3.23823 18.3335 3.68026V6.18026Z" fill="#796FAB"/>
<path d="M5.83333 11.1803H3.33333C2.44928 11.1803 1.60143 11.5315 0.976311 12.1566C0.35119 12.7817 0 13.6296 0 14.5136L0 17.0136C0 17.8977 0.35119 18.7455 0.976311 19.3707C1.60143 19.9958 2.44928 20.347 3.33333 20.347H5.83333C6.71739 20.347 7.56524 19.9958 8.19036 19.3707C8.81548 18.7455 9.16667 17.8977 9.16667 17.0136V14.5136C9.16667 13.6296 8.81548 12.7817 8.19036 12.1566C7.56524 11.5315 6.71739 11.1803 5.83333 11.1803ZM7.5 17.0136C7.5 17.4557 7.32441 17.8796 7.01184 18.1921C6.69928 18.5047 6.27536 18.6803 5.83333 18.6803H3.33333C2.89131 18.6803 2.46738 18.5047 2.15482 18.1921C1.84226 17.8796 1.66667 17.4557 1.66667 17.0136V14.5136C1.66667 14.0716 1.84226 13.6477 2.15482 13.3351C2.46738 13.0226 2.89131 12.847 3.33333 12.847H5.83333C6.27536 12.847 6.69928 13.0226 7.01184 13.3351C7.32441 13.6477 7.5 14.0716 7.5 14.5136V17.0136Z" fill="#796FAB"/>
<path d="M16.6668 11.1803H14.1668C13.2828 11.1803 12.4349 11.5315 11.8098 12.1566C11.1847 12.7817 10.8335 13.6296 10.8335 14.5136V17.0136C10.8335 17.8977 11.1847 18.7455 11.8098 19.3707C12.4349 19.9958 13.2828 20.347 14.1668 20.347H16.6668C17.5509 20.347 18.3987 19.9958 19.0239 19.3707C19.649 18.7455 20.0002 17.8977 20.0002 17.0136V14.5136C20.0002 13.6296 19.649 12.7817 19.0239 12.1566C18.3987 11.5315 17.5509 11.1803 16.6668 11.1803ZM18.3335 17.0136C18.3335 17.4557 18.1579 17.8796 17.8453 18.1921C17.5328 18.5047 17.1089 18.6803 16.6668 18.6803H14.1668C13.7248 18.6803 13.3009 18.5047 12.9883 18.1921C12.6758 17.8796 12.5002 17.4557 12.5002 17.0136V14.5136C12.5002 14.0716 12.6758 13.6477 12.9883 13.3351C13.3009 13.0226 13.7248 12.847 14.1668 12.847H16.6668C17.1089 12.847 17.5328 13.0226 17.8453 13.3351C18.1579 13.6477 18.3335 14.0716 18.3335 14.5136V17.0136Z" fill="#796FAB"/>
</g>
<defs>
<clipPath id="clip0_81_8295">
<rect width="20" height="20" fill="white" transform="translate(0 0.346924)"/>
</clipPath>
</defs>
</svg>
