<svg width="20" height="21" viewBox="0 0 20 21" fill="none" xmlns="http://www.w3.org/2000/svg">
<g clip-path="url(#clip0_81_8323)">
<g clip-path="url(#clip1_81_8323)">
<path d="M14.1665 0.567505H5.83317C4.72851 0.568802 3.66947 0.999431 2.88835 1.76493C2.10724 2.53044 1.66783 3.56831 1.6665 4.6509V16.0844C1.66783 17.167 2.10724 18.2048 2.88835 18.9704C3.66947 19.7359 4.72851 20.1665 5.83317 20.1678H14.1665C15.2712 20.1665 16.3302 19.7359 17.1113 18.9704C17.8924 18.2048 18.3318 17.167 18.3332 16.0844V4.6509C18.3318 3.56831 17.8924 2.53044 17.1113 1.76493C16.3302 0.999431 15.2712 0.568802 14.1665 0.567505V0.567505ZM5.83317 2.20086H14.1665C14.8295 2.20086 15.4654 2.45899 15.9343 2.91846C16.4031 3.37793 16.6665 4.00111 16.6665 4.6509V9.55097H3.33317V4.6509C3.33317 4.00111 3.59656 3.37793 4.0654 2.91846C4.53424 2.45899 5.17013 2.20086 5.83317 2.20086ZM14.1665 18.5344H5.83317C5.17013 18.5344 4.53424 18.2763 4.0654 17.8168C3.59656 17.3574 3.33317 16.7342 3.33317 16.0844V11.1843H16.6665V16.0844C16.6665 16.7342 16.4031 17.3574 15.9343 17.8168C15.4654 18.2763 14.8295 18.5344 14.1665 18.5344Z" fill="#282828" fill-opacity="0.7"/>
<path d="M9.16683 6.28424H10.8335C11.0545 6.28424 11.2665 6.19819 11.4228 6.04504C11.579 5.89188 11.6668 5.68415 11.6668 5.46756C11.6668 5.25096 11.579 5.04324 11.4228 4.89008C11.2665 4.73692 11.0545 4.65088 10.8335 4.65088H9.16683C8.94582 4.65088 8.73385 4.73692 8.57757 4.89008C8.42129 5.04324 8.3335 5.25096 8.3335 5.46756C8.3335 5.68415 8.42129 5.89188 8.57757 6.04504C8.73385 6.19819 8.94582 6.28424 9.16683 6.28424Z" fill="#282828" fill-opacity="0.7"/>
<path d="M10.8335 14.451H9.16683C8.94582 14.451 8.73385 14.5371 8.57757 14.6902C8.42129 14.8434 8.3335 15.0511 8.3335 15.2677C8.3335 15.4843 8.42129 15.6921 8.57757 15.8452C8.73385 15.9984 8.94582 16.0844 9.16683 16.0844H10.8335C11.0545 16.0844 11.2665 15.9984 11.4228 15.8452C11.579 15.6921 11.6668 15.4843 11.6668 15.2677C11.6668 15.0511 11.579 14.8434 11.4228 14.6902C11.2665 14.5371 11.0545 14.451 10.8335 14.451Z" fill="#282828" fill-opacity="0.7"/>
</g>
</g>
<defs>
<clipPath id="clip0_81_8323">
<rect width="20" height="19.6003" fill="white" transform="translate(0 0.567505)"/>
</clipPath>
<clipPath id="clip1_81_8323">
<rect width="20" height="19.6003" fill="white" transform="translate(0 0.567505)"/>
</clipPath>
</defs>
</svg>
