<svg width="20" height="21" viewBox="0 0 20 21" fill="none" xmlns="http://www.w3.org/2000/svg">
<g clip-path="url(#clip0_81_8332)">
<path d="M19.0258 7.99022L15.7933 4.75772C15.4623 4.43799 14.9347 4.44717 14.615 4.77823C14.3031 5.10116 14.3031 5.61315 14.615 5.93608L17.8475 9.16858C17.9436 9.26651 18.0275 9.37565 18.0975 9.49358C18.085 9.49358 18.075 9.4869 18.0625 9.4869L4.9925 9.51358C4.53227 9.51358 4.15918 9.88666 4.15918 10.3469C4.15918 10.8071 4.53227 11.1802 4.9925 11.1802L18.0575 11.1535C18.0808 11.1535 18.1 11.1419 18.1225 11.1402C18.0486 11.2812 17.9548 11.4108 17.8442 11.5252L14.6117 14.7577C14.2806 15.0774 14.2714 15.605 14.5912 15.936C14.9109 16.2671 15.4384 16.2763 15.7695 15.9565C15.7764 15.9498 15.7833 15.943 15.79 15.936L19.0225 12.7035C20.3238 11.4019 20.3238 9.29186 19.0225 7.99022H19.0258Z" fill="#282828" fill-opacity="0.7"/>
<path d="M5.83478 18.6802H4.16811C2.7874 18.6802 1.66811 17.5609 1.66811 16.1802V4.5136C1.66811 3.1329 2.7874 2.0136 4.16811 2.0136H5.83478C6.29502 2.0136 6.66811 1.64052 6.66811 1.18028C6.66811 0.720049 6.29506 0.346924 5.83478 0.346924H4.16811C1.86811 0.349697 0.00423828 2.21356 0.00146484 4.5136V16.1803C0.00423828 18.4803 1.86811 20.3442 4.16814 20.3469H5.83482C6.29506 20.3469 6.66814 19.9738 6.66814 19.5136C6.66814 19.0534 6.29506 18.6802 5.83478 18.6802Z" fill="#282828" fill-opacity="0.7"/>
</g>
<defs>
<clipPath id="clip0_81_8332">
<rect width="20" height="20" fill="white" transform="translate(0 0.346924)"/>
</clipPath>
</defs>
</svg>
