<svg width="20" height="21" viewBox="0 0 20 21" fill="none" xmlns="http://www.w3.org/2000/svg">
<g clip-path="url(#clip0_81_8308)">
<g clip-path="url(#clip1_81_8308)">
<path d="M4.5835 14.5136C5.27385 14.5136 5.8335 13.954 5.8335 13.2636C5.8335 12.5733 5.27385 12.0136 4.5835 12.0136C3.89314 12.0136 3.3335 12.5733 3.3335 13.2636C3.3335 13.954 3.89314 14.5136 4.5835 14.5136Z" fill="#282828" fill-opacity="0.7"/>
<path d="M15.8333 2.84692H4.16667C3.062 2.84825 2.00296 3.28766 1.22185 4.06877C0.440735 4.84989 0.00132321 5.90893 0 7.01359L0 13.6803C0.00132321 14.7849 0.440735 15.844 1.22185 16.6251C2.00296 17.4062 3.062 17.8456 4.16667 17.8469H15.8333C16.938 17.8456 17.997 17.4062 18.7782 16.6251C19.5593 15.844 19.9987 14.7849 20 13.6803V7.01359C19.9987 5.90893 19.5593 4.84989 18.7782 4.06877C17.997 3.28766 16.938 2.84825 15.8333 2.84692ZM4.16667 4.51359H15.8333C16.4964 4.51359 17.1323 4.77698 17.6011 5.24582C18.0699 5.71466 18.3333 6.35055 18.3333 7.01359H1.66667C1.66667 6.35055 1.93006 5.71466 2.3989 5.24582C2.86774 4.77698 3.50363 4.51359 4.16667 4.51359ZM15.8333 16.1803H4.16667C3.50363 16.1803 2.86774 15.9169 2.3989 15.448C1.93006 14.9792 1.66667 14.3433 1.66667 13.6803V8.68026H18.3333V13.6803C18.3333 14.3433 18.0699 14.9792 17.6011 15.448C17.1323 15.9169 16.4964 16.1803 15.8333 16.1803Z" fill="#282828" fill-opacity="0.7"/>
</g>
</g>
<defs>
<clipPath id="clip0_81_8308">
<rect width="20" height="20" fill="white" transform="translate(0 0.346924)"/>
</clipPath>
<clipPath id="clip1_81_8308">
<rect width="20" height="20" fill="white" transform="translate(0 0.346924)"/>
</clipPath>
</defs>
</svg>
