<svg width="60" height="60" viewBox="0 0 60 60" fill="none" xmlns="http://www.w3.org/2000/svg">
<g id="Group 701">
<rect id="Rectangle 281" x="0.735962" y="0.606201" width="58.6797" height="58.6797" rx="10.2689" fill="#FFF9C8"/>
<g id="Group 639">
<g id="Group 637">
<path id="Rectangle 232" d="M15.9927 29.0663H44.1589V37.5631C44.1589 38.9877 44.151 39.5535 44.0008 39.9922C43.707 40.8501 43.0332 41.5239 42.1753 41.8176C41.7366 41.9679 41.1708 41.9758 39.7462 41.9758H20.4054C18.9808 41.9758 18.415 41.9679 17.9763 41.8176C17.1184 41.5239 16.4446 40.8501 16.1509 39.9922C16.0007 39.5535 15.9927 38.9877 15.9927 37.5631V29.0663Z" stroke="#282828" stroke-width="1.17359"/>
<rect id="Rectangle 233" x="21.8612" y="34.9341" width="4.69438" height="1.46699" rx="0.733496" fill="#282828"/>
<rect id="Rectangle 234" x="33.5968" y="34.9341" width="4.69438" height="1.46699" rx="0.733496" fill="#282828"/>
</g>
<path id="Vector" d="M28.3879 26.223C28.5336 26.3688 28.7067 26.4845 28.8971 26.5634C29.0876 26.6424 29.2918 26.683 29.4979 26.683C29.7041 26.683 29.9083 26.6424 30.0987 26.5634C30.2892 26.4845 30.4622 26.3688 30.608 26.223L32.2877 24.5433C32.3777 24.4437 32.4261 24.3132 32.4226 24.179C32.4192 24.0448 32.3642 23.917 32.2692 23.8221C32.1741 23.7273 32.0462 23.6726 31.912 23.6695C31.7777 23.6663 31.6474 23.7149 31.548 23.8052L30.0174 25.3363L30.021 17.2663C30.021 17.1275 29.9659 16.9945 29.8678 16.8964C29.7697 16.7983 29.6367 16.7432 29.4979 16.7432V16.7432C29.3592 16.7432 29.2261 16.7983 29.128 16.8964C29.0299 16.9945 28.9748 17.1275 28.9748 17.2663L28.9701 25.3264L27.4479 23.8052C27.3497 23.7071 27.2166 23.652 27.0778 23.652C26.9391 23.6521 26.806 23.7073 26.7079 23.8054C26.6098 23.9036 26.5548 24.0367 26.5548 24.1754C26.5549 24.3142 26.61 24.4473 26.7082 24.5454L28.3879 26.223Z" fill="#282828"/>
</g>
</g>
</svg>
