<svg width="20" height="20" viewBox="0 0 20 20" fill="none" xmlns="http://www.w3.org/2000/svg">
<path d="M18.9928 11.2136L18.4752 11.8606L17.5129 10.6595L18.0695 9.9638L18.9928 11.1179C18.9931 11.1187 18.9934 11.1196 18.9938 11.1207C18.9969 11.1303 19 11.1461 19 11.1658C19 11.1854 18.9969 11.2012 18.9938 11.2108C18.9934 11.2119 18.9931 11.2128 18.9928 11.2136ZM15.5253 13.1431L16.4857 14.3434L12.9245 18.7946L12.0423 18.9177L12.1853 17.3148L15.5253 13.1431ZM9.02079 18.9995H1.50006C1.44437 18.9995 1.33901 18.9739 1.22032 18.8255C1.10022 18.6754 1 18.4308 1 18.1246V16.4996C1 13.9338 2.63026 12.2497 4.20016 12.2497H4.46889C5.23921 12.6452 6.09296 12.8747 7.00027 12.8747C7.90627 12.8747 8.76264 12.6458 9.5324 12.2497H9.80038C10.4475 12.2497 11.0844 12.5237 11.6274 13.0449L9.72581 15.4218L9.47893 15.7304L9.28961 15.967L9.2635 16.2689L9.22624 16.6997L9.22599 16.7025L9.02079 18.9995ZM10.0004 4.99988C10.0004 7.42895 8.4608 8.99976 7.00027 8.99976C5.53974 8.99976 4.00012 7.42895 4.00012 4.99988C4.00012 2.57081 5.53974 1 7.00027 1C8.4608 1 10.0004 2.57081 10.0004 4.99988Z" stroke="#282828" stroke-opacity="0.7" stroke-width="2"/>
</svg>
