<svg width="60" height="60" viewBox="0 0 60 60" fill="none" xmlns="http://www.w3.org/2000/svg">
<g id="Group 701">
<rect id="Rectangle 281" x="0.677246" y="0.682129" width="58.3863" height="58.3863" rx="10.2176" fill="#FBD1D1"/>
<g id="Group 639">
<g id="Group 637">
<path id="Rectangle 232" d="M15.8578 28.9999H43.8832V37.4542C43.8832 38.8717 43.8753 39.4346 43.7258 39.8712C43.4336 40.7247 42.7631 41.3952 41.9095 41.6875C41.473 41.8369 40.91 41.8449 39.4926 41.8449H20.2484C18.831 41.8449 18.268 41.8369 17.8315 41.6875C16.9779 41.3952 16.3074 40.7247 16.0152 39.8712C15.8657 39.4346 15.8578 38.8717 15.8578 37.4542V28.9999Z" stroke="#282828" stroke-width="1.16773"/>
<rect id="Rectangle 233" x="21.6968" y="34.8384" width="4.67091" height="1.45966" rx="0.729829" fill="#282828"/>
<rect id="Rectangle 234" x="33.374" y="34.8384" width="4.67091" height="1.45966" rx="0.729829" fill="#282828"/>
</g>
<path id="Vector" d="M28.3878 26.3575C28.5335 26.5033 28.7066 26.619 28.897 26.6979C29.0875 26.7769 29.2916 26.8175 29.4978 26.8175C29.704 26.8175 29.9081 26.7769 30.0986 26.6979C30.2891 26.619 30.4621 26.5033 30.6079 26.3575L32.2876 24.6778C32.3776 24.5782 32.4259 24.4478 32.4225 24.3135C32.419 24.1793 32.3641 24.0515 32.269 23.9567C32.174 23.8618 32.0461 23.8072 31.9119 23.804C31.7776 23.8008 31.6473 23.8494 31.5479 23.9397L30.0173 25.4708L30.0209 17.4008C30.0209 17.2621 29.9658 17.129 29.8677 17.0309C29.7696 16.9328 29.6366 16.8777 29.4978 16.8777V16.8777C29.3591 16.8777 29.226 16.9328 29.1279 17.0309C29.0298 17.129 28.9747 17.2621 28.9747 17.4008L28.97 25.4609L27.4477 23.9397C27.3496 23.8416 27.2165 23.7865 27.0777 23.7866C26.939 23.7866 26.8059 23.8418 26.7078 23.9399C26.6097 24.0381 26.5546 24.1712 26.5547 24.31C26.5547 24.4487 26.6099 24.5818 26.7081 24.6799L28.3878 26.3575Z" fill="#282828"/>
</g>
</g>
</svg>
