<svg width="60" height="59" viewBox="0 0 60 59" fill="none" xmlns="http://www.w3.org/2000/svg">
<rect x="0.716309" y="-0.00488281" width="58.5819" height="58.5819" rx="10.2518" fill="#C1F8C3"/>
<path d="M15.9476 28.4078H44.067V36.8905C44.067 38.3127 44.059 38.8776 43.909 39.3156C43.6158 40.172 42.9431 40.8447 42.0866 41.1379C41.6486 41.2879 41.0838 41.2959 39.6616 41.2959H20.353C18.9308 41.2959 18.3659 41.2879 17.9279 41.1379C17.0715 40.8447 16.3988 40.172 16.1056 39.3156C15.9556 38.8776 15.9476 38.3127 15.9476 36.8905V28.4078Z" stroke="#282828" stroke-width="1.17164"/>
<rect x="21.8066" y="34.2659" width="4.68655" height="1.46455" rx="0.732274" fill="#282828"/>
<rect x="33.5229" y="34.2659" width="4.68655" height="1.46455" rx="0.732274" fill="#282828"/>
<path d="M28.3878 25.6317C28.5335 25.7775 28.7066 25.8932 28.897 25.9721C29.0875 26.051 29.2916 26.0917 29.4978 26.0917C29.704 26.0917 29.9081 26.051 30.0986 25.9721C30.2891 25.8932 30.4621 25.7775 30.6079 25.6317L32.2876 23.952C32.3776 23.8524 32.4259 23.7219 32.4225 23.5877C32.419 23.4535 32.3641 23.3257 32.269 23.2308C32.174 23.136 32.0461 23.0813 31.9119 23.0782C31.7776 23.075 31.6473 23.1236 31.5479 23.2139L30.0173 24.745L30.0209 16.675C30.0209 16.5362 29.9658 16.4032 29.8677 16.3051C29.7696 16.207 29.6366 16.1519 29.4978 16.1519V16.1519C29.3591 16.1519 29.226 16.207 29.1279 16.3051C29.0298 16.4032 28.9747 16.5362 28.9747 16.675L28.97 24.7351L27.4477 23.2139C27.3496 23.1158 27.2165 23.0607 27.0777 23.0607C26.939 23.0608 26.8059 23.116 26.7078 23.2141C26.6097 23.3123 26.5546 23.4454 26.5547 23.5841C26.5547 23.7229 26.6099 23.856 26.7081 23.9541L28.3878 25.6317Z" fill="#282828"/>
</svg>
