<svg width="60" height="60" viewBox="0 0 60 60" fill="none" xmlns="http://www.w3.org/2000/svg">
<rect x="0.73584" y="0.606201" width="58.6797" height="58.6797" rx="10.2689" fill="#FFF9C8"/>
<path d="M15.9926 29.0663H44.1588V37.5631C44.1588 38.9877 44.1508 39.5535 44.0006 39.9922C43.7069 40.8501 43.0331 41.5239 42.1752 41.8176C41.7365 41.9679 41.1707 41.9758 39.7461 41.9758H20.4053C18.9807 41.9758 18.4149 41.9679 17.9762 41.8176C17.1183 41.5239 16.4445 40.8501 16.1507 39.9922C16.0005 39.5535 15.9926 38.9877 15.9926 37.5631V29.0663Z" stroke="#282828" stroke-width="1.17359"/>
<rect x="21.8613" y="34.9341" width="4.69438" height="1.46699" rx="0.733496" fill="#282828"/>
<rect x="33.5972" y="34.9341" width="4.69438" height="1.46699" rx="0.733496" fill="#282828"/>
<path d="M28.3873 26.223C28.533 26.3688 28.7061 26.4845 28.8965 26.5634C29.087 26.6424 29.2912 26.683 29.4973 26.683C29.7035 26.683 29.9077 26.6424 30.0981 26.5634C30.2886 26.4845 30.4616 26.3688 30.6074 26.223L32.2871 24.5433C32.3771 24.4437 32.4254 24.3132 32.422 24.179C32.4186 24.0448 32.3636 23.917 32.2686 23.8221C32.1735 23.7273 32.0456 23.6726 31.9114 23.6695C31.7771 23.6663 31.6468 23.7149 31.5474 23.8052L30.0168 25.3363L30.0204 17.2663C30.0204 17.1275 29.9653 16.9945 29.8672 16.8964C29.7691 16.7983 29.6361 16.7432 29.4973 16.7432V16.7432C29.3586 16.7432 29.2255 16.7983 29.1274 16.8964C29.0293 16.9945 28.9742 17.1275 28.9742 17.2663L28.9695 25.3264L27.4473 23.8052C27.3491 23.7071 27.216 23.652 27.0772 23.652C26.9385 23.6521 26.8054 23.7073 26.7073 23.8054C26.6092 23.9036 26.5542 24.0367 26.5542 24.1754C26.5542 24.3142 26.6094 24.4473 26.7076 24.5454L28.3873 26.223Z" fill="#282828"/>
</svg>
